<svg xmlns="http://www.w3.org/2000/svg" viewBox="0 0 512 512"><rect width="512" height="512" fill="#ffffff"/><g fill="#0a0a0a"><g transform="translate(90.95 352.25) scale(0.12919 -0.12919)"><path d="M600 0L600 569L49 1490L384 1490L643 1023Q684 951 715.5 881.5Q747 812 780 714L712 714Q744 813 775 883Q806 953 844 1023L1097 1490L1430 1490L886 569L886 0Z"/></g><g transform="translate(271.45 352.25) scale(0.12919 -0.12919)"><path d="M142 0L142 1490L1109 1490L1109 1251L428 1251L428 819L1043 819L1043 584L428 584L428 0Z"/></g></g></svg>
